0
SECTION
2
HEADER
9
$INSUNITS
70
4
9
$ACADVER
1
AC1014
9
$HANDSEED
5
FFFF
0
ENDSEC
0
SECTION
2
TABLES
0
TABLE
2
VPORT
5
8
100
AcDbSymbolTable
0
ENDTAB
0
TABLE
2
LTYPE
5
5
100
AcDbSymbolTable
0
LTYPE
5
14
100
AcDbSymbolTableRecord
100
AcDbLinetypeTableRecord
2
BYBLOCK
70
0
0
LTYPE
5
15
100
AcDbSymbolTableRecord
100
AcDbLinetypeTableRecord
2
BYLAYER
70
0
0
ENDTAB
0
TABLE
2
LAYER
5
2
100
AcDbSymbolTable
70
2
0
LAYER
5
50
100
AcDbSymbolTableRecord
100
AcDbLayerTableRecord
2
0
70
0
6
CONTINUOUS
0
ENDTAB
0
TABLE
2
STYLE
5
3
100
AcDbSymbolTable
70
1
0
STYLE
5
11
100
AcDbSymbolTableRecord
100
AcDbTextStyleTableRecord
2
STANDARD
70
0
0
ENDTAB
0
TABLE
2
VIEW
5
6
100
AcDbSymbolTable
70
0
0
ENDTAB
0
TABLE
2
UCS
5
7
100
AcDbSymbolTable
70
0
0
ENDTAB
0
TABLE
2
APPID
5
9
100
AcDbSymbolTable
70
2
0
APPID
5
12
100
AcDbSymbolTableRecord
100
AcDbRegAppTableRecord
2
ACAD
70
0
0
ENDTAB
0
TABLE
2
DIMSTYLE
5
A
100
AcDbSymbolTable
70
1
0
ENDTAB
0
TABLE
2
BLOCK_RECORD
5
1
100
AcDbSymbolTable
70
1
0
BLOCK_RECORD
5
1F
100
AcDbSymbolTableRecord
100
AcDbBlockTableRecord
2
*MODEL_SPACE
0
BLOCK_RECORD
5
1B
100
AcDbSymbolTableRecord
100
AcDbBlockTableRecord
2
*PAPER_SPACE
0
ENDTAB
0
ENDSEC
0
SECTION
2
BLOCKS
0
BLOCK
5
20
100
AcDbEntity
100
AcDbBlockBegin
2
*MODEL_SPACE
0
ENDBLK
5
21
100
AcDbEntity
100
AcDbBlockEnd
0
BLOCK
5
1C
100
AcDbEntity
100
AcDbBlockBegin
2
*PAPER_SPACE
0
ENDBLK
5
1D
100
AcDbEntity
100
AcDbBlockEnd
0
ENDSEC
0
SECTION
2
ENTITIES
0
LWPOLYLINE
5
100
100
AcDbEntity
8
0
100
AcDbPolyline
90
36
70
1
43
0.0
10
-88.000001311302185
20
3.0000000447034836
10
-69.500001035630703
20
3.0000000447034836
10
-69.500001035630703
20
0
10
-57.499998714774847
20
0
10
-57.499998714774847
20
3.0000000447034836
10
-33.5000004991889
20
3.0000000447034836
10
-33.5000004991889
20
0
10
-21.500000320374966
20
0
10
-21.500000320374966
20
3.0000000447034836
10
-3.0000000447034836
20
3.0000000447034836
10
-3.0000000447034836
20
15.000000223517418
10
0
20
15.000000223517418
10
0
20
27.000000402331352
10
-3.0000000447034836
20
27.000000402331352
10
-3.0000000447034836
20
38.99999912828207
10
0
20
38.99999912828207
10
0
20
50.999998860061169
10
-3.0000000447034836
20
50.999998860061169
10
-3.0000000447034836
20
63.000000938773155
10
-21.499999519437551
20
63.000000938773155
10
-21.499999519437551
20
59.999998658895493
10
-33.49999925121665
20
59.999998658895493
10
-33.49999925121665
20
63.000000938773155
10
-57.499998714774847
20
63.000000938773155
10
-57.499998714774847
20
59.999998658895493
10
-69.499998446553946
20
59.999998658895493
10
-69.499998446553946
20
63.000000938773155
10
-88.000001311302185
20
63.000000938773155
10
-88.000001311302185
20
51.000000759959221
10
-91.000001356005669
20
51.000000759959221
10
-91.000001356005669
20
39.000000581145287
10
-88.000001311302185
20
39.000000581145287
10
-88.000001311302185
20
27.000000402331352
10
-91.000001356005669
20
27.000000402331352
10
-91.000001356005669
20
15.000000223517418
10
-88.000001311302185
20
15.000000223517418
0
LWPOLYLINE
5
101
100
AcDbEntity
8
0
100
AcDbPolyline
90
4
70
1
43
0.0
10
-69.500001035630703
20
56.000000834465027
10
-57.499998714774847
20
56.000000834465027
10
-57.499998714774847
20
52.999998815357685
10
-69.500001035630703
20
52.999998815357685
0
LWPOLYLINE
5
102
100
AcDbEntity
8
0
100
AcDbPolyline
90
4
70
1
43
0.0
10
-33.5000004991889
20
56.000000834465027
10
-21.500000320374966
20
56.000000834465027
10
-21.500000320374966
20
53.000000789761543
10
-33.5000004991889
20
53.000000789761543
0
ENDSEC
0
SECTION
2
OBJECTS
0
DICTIONARY
5
C
100
AcDbDictionary
3
ACAD_GROUP
350
D
3
ACAD_MLINESTYLE
350
17
0
DICTIONARY
5
D
100
AcDbDictionary
0
DICTIONARY
5
1A
330
C
100
AcDbDictionary
0
DICTIONARY
5
17
100
AcDbDictionary
0
ENDSEC
0
EOF
