0
SECTION
2
HEADER
9
$INSUNITS
70
4
9
$ACADVER
1
AC1014
9
$HANDSEED
5
FFFF
0
ENDSEC
0
SECTION
2
TABLES
0
TABLE
2
VPORT
5
8
100
AcDbSymbolTable
0
ENDTAB
0
TABLE
2
LTYPE
5
5
100
AcDbSymbolTable
0
LTYPE
5
14
100
AcDbSymbolTableRecord
100
AcDbLinetypeTableRecord
2
BYBLOCK
70
0
0
LTYPE
5
15
100
AcDbSymbolTableRecord
100
AcDbLinetypeTableRecord
2
BYLAYER
70
0
0
ENDTAB
0
TABLE
2
LAYER
5
2
100
AcDbSymbolTable
70
2
0
LAYER
5
50
100
AcDbSymbolTableRecord
100
AcDbLayerTableRecord
2
0
70
0
6
CONTINUOUS
0
ENDTAB
0
TABLE
2
STYLE
5
3
100
AcDbSymbolTable
70
1
0
STYLE
5
11
100
AcDbSymbolTableRecord
100
AcDbTextStyleTableRecord
2
STANDARD
70
0
0
ENDTAB
0
TABLE
2
VIEW
5
6
100
AcDbSymbolTable
70
0
0
ENDTAB
0
TABLE
2
UCS
5
7
100
AcDbSymbolTable
70
0
0
ENDTAB
0
TABLE
2
APPID
5
9
100
AcDbSymbolTable
70
2
0
APPID
5
12
100
AcDbSymbolTableRecord
100
AcDbRegAppTableRecord
2
ACAD
70
0
0
ENDTAB
0
TABLE
2
DIMSTYLE
5
A
100
AcDbSymbolTable
70
1
0
ENDTAB
0
TABLE
2
BLOCK_RECORD
5
1
100
AcDbSymbolTable
70
1
0
BLOCK_RECORD
5
1F
100
AcDbSymbolTableRecord
100
AcDbBlockTableRecord
2
*MODEL_SPACE
0
BLOCK_RECORD
5
1B
100
AcDbSymbolTableRecord
100
AcDbBlockTableRecord
2
*PAPER_SPACE
0
ENDTAB
0
ENDSEC
0
SECTION
2
BLOCKS
0
BLOCK
5
20
100
AcDbEntity
100
AcDbBlockBegin
2
*MODEL_SPACE
0
ENDBLK
5
21
100
AcDbEntity
100
AcDbBlockEnd
0
BLOCK
5
1C
100
AcDbEntity
100
AcDbBlockBegin
2
*PAPER_SPACE
0
ENDBLK
5
1D
100
AcDbEntity
100
AcDbBlockEnd
0
ENDSEC
0
SECTION
2
ENTITIES
0
LINE
5
100
100
AcDbEntity
8
0
100
AcDbLine
10
-88.000001311302185
20
3.0000000447034836
30
0
11
-69.500001035630703
21
3.0000000447034836
31
0
0
LINE
5
101
100
AcDbEntity
8
0
100
AcDbLine
10
-69.500001035630703
20
3.0000000447034836
30
0
11
-69.500001035630703
21
0
31
0
0
LINE
5
102
100
AcDbEntity
8
0
100
AcDbLine
10
-69.500001035630703
20
0
30
0
11
-57.499998714774847
21
0
31
0
0
LINE
5
103
100
AcDbEntity
8
0
100
AcDbLine
10
-57.499998714774847
20
0
30
0
11
-57.499998714774847
21
3.0000000447034836
31
0
0
LINE
5
104
100
AcDbEntity
8
0
100
AcDbLine
10
-57.499998714774847
20
3.0000000447034836
30
0
11
-33.5000004991889
21
3.0000000447034836
31
0
0
LINE
5
105
100
AcDbEntity
8
0
100
AcDbLine
10
-33.5000004991889
20
3.0000000447034836
30
0
11
-33.5000004991889
21
0
31
0
0
LINE
5
106
100
AcDbEntity
8
0
100
AcDbLine
10
-33.5000004991889
20
0
30
0
11
-21.500000320374966
21
0
31
0
0
LINE
5
107
100
AcDbEntity
8
0
100
AcDbLine
10
-21.500000320374966
20
0
30
0
11
-21.500000320374966
21
3.0000000447034836
31
0
0
LINE
5
108
100
AcDbEntity
8
0
100
AcDbLine
10
-21.500000320374966
20
3.0000000447034836
30
0
11
-3.0000000447034836
21
3.0000000447034836
31
0
0
LINE
5
109
100
AcDbEntity
8
0
100
AcDbLine
10
-3.0000000447034836
20
3.0000000447034836
30
0
11
-3.0000000447034836
21
15.000000223517418
31
0
0
LINE
5
110
100
AcDbEntity
8
0
100
AcDbLine
10
-3.0000000447034836
20
15.000000223517418
30
0
11
0
21
15.000000223517418
31
0
0
LINE
5
111
100
AcDbEntity
8
0
100
AcDbLine
10
0
20
15.000000223517418
30
0
11
0
21
27.000000402331352
31
0
0
LINE
5
112
100
AcDbEntity
8
0
100
AcDbLine
10
0
20
27.000000402331352
30
0
11
-3.0000000447034836
21
27.000000402331352
31
0
0
LINE
5
113
100
AcDbEntity
8
0
100
AcDbLine
10
-3.0000000447034836
20
27.000000402331352
30
0
11
-3.0000000447034836
21
38.99999912828207
31
0
0
LINE
5
114
100
AcDbEntity
8
0
100
AcDbLine
10
-3.0000000447034836
20
38.99999912828207
30
0
11
0
21
38.99999912828207
31
0
0
LINE
5
115
100
AcDbEntity
8
0
100
AcDbLine
10
0
20
38.99999912828207
30
0
11
0
21
50.999998860061169
31
0
0
LINE
5
116
100
AcDbEntity
8
0
100
AcDbLine
10
0
20
50.999998860061169
30
0
11
-3.0000000447034836
21
50.999998860061169
31
0
0
LINE
5
117
100
AcDbEntity
8
0
100
AcDbLine
10
-3.0000000447034836
20
50.999998860061169
30
0
11
-3.0000000447034836
21
63.000000938773155
31
0
0
LINE
5
118
100
AcDbEntity
8
0
100
AcDbLine
10
-3.0000000447034836
20
63.000000938773155
30
0
11
-21.499999519437551
21
63.000000938773155
31
0
0
LINE
5
119
100
AcDbEntity
8
0
100
AcDbLine
10
-21.499999519437551
20
63.000000938773155
30
0
11
-21.499999519437551
21
59.999998658895493
31
0
0
LINE
5
120
100
AcDbEntity
8
0
100
AcDbLine
10
-21.499999519437551
20
59.999998658895493
30
0
11
-33.49999925121665
21
59.999998658895493
31
0
0
LINE
5
121
100
AcDbEntity
8
0
100
AcDbLine
10
-33.49999925121665
20
59.999998658895493
30
0
11
-33.49999925121665
21
63.000000938773155
31
0
0
LINE
5
122
100
AcDbEntity
8
0
100
AcDbLine
10
-33.49999925121665
20
63.000000938773155
30
0
11
-57.499998714774847
21
63.000000938773155
31
0
0
LINE
5
123
100
AcDbEntity
8
0
100
AcDbLine
10
-57.499998714774847
20
63.000000938773155
30
0
11
-57.499998714774847
21
59.999998658895493
31
0
0
LINE
5
124
100
AcDbEntity
8
0
100
AcDbLine
10
-57.499998714774847
20
59.999998658895493
30
0
11
-69.499998446553946
21
59.999998658895493
31
0
0
LINE
5
125
100
AcDbEntity
8
0
100
AcDbLine
10
-69.499998446553946
20
59.999998658895493
30
0
11
-69.499998446553946
21
63.000000938773155
31
0
0
LINE
5
126
100
AcDbEntity
8
0
100
AcDbLine
10
-69.499998446553946
20
63.000000938773155
30
0
11
-88.000001311302185
21
63.000000938773155
31
0
0
LINE
5
127
100
AcDbEntity
8
0
100
AcDbLine
10
-88.000001311302185
20
63.000000938773155
30
0
11
-88.000001311302185
21
51.000000759959221
31
0
0
LINE
5
128
100
AcDbEntity
8
0
100
AcDbLine
10
-88.000001311302185
20
51.000000759959221
30
0
11
-91.000001356005669
21
51.000000759959221
31
0
0
LINE
5
129
100
AcDbEntity
8
0
100
AcDbLine
10
-91.000001356005669
20
51.000000759959221
30
0
11
-91.000001356005669
21
39.000000581145287
31
0
0
LWPOLYLINE
5
130
100
AcDbEntity
8
0
100
AcDbPolyline
90
4
70
1
43
0.0
10
-69.500001035630703
20
56.000000834465027
10
-57.499998714774847
20
56.000000834465027
10
-57.499998714774847
20
52.999998815357685
10
-69.500001035630703
20
52.999998815357685
0
LWPOLYLINE
5
131
100
AcDbEntity
8
0
100
AcDbPolyline
90
4
70
1
43
0.0
10
-33.5000004991889
20
56.000000834465027
10
-21.500000320374966
20
56.000000834465027
10
-21.500000320374966
20
53.000000789761543
10
-33.5000004991889
20
53.000000789761543
0
ENDSEC
0
SECTION
2
OBJECTS
0
DICTIONARY
5
C
100
AcDbDictionary
3
ACAD_GROUP
350
D
3
ACAD_MLINESTYLE
350
17
0
DICTIONARY
5
D
100
AcDbDictionary
0
DICTIONARY
5
1A
330
C
100
AcDbDictionary
0
DICTIONARY
5
17
100
AcDbDictionary
0
ENDSEC
0
EOF
