0
SECTION
2
HEADER
9
$INSUNITS
70
4
9
$ACADVER
1
AC1014
9
$HANDSEED
5
FFFF
0
ENDSEC
0
SECTION
2
TABLES
0
TABLE
2
VPORT
5
8
100
AcDbSymbolTable
0
ENDTAB
0
TABLE
2
LTYPE
5
5
100
AcDbSymbolTable
0
LTYPE
5
14
100
AcDbSymbolTableRecord
100
AcDbLinetypeTableRecord
2
BYBLOCK
70
0
0
LTYPE
5
15
100
AcDbSymbolTableRecord
100
AcDbLinetypeTableRecord
2
BYLAYER
70
0
0
ENDTAB
0
TABLE
2
LAYER
5
2
100
AcDbSymbolTable
70
2
0
LAYER
5
50
100
AcDbSymbolTableRecord
100
AcDbLayerTableRecord
2
0
70
0
6
CONTINUOUS
0
ENDTAB
0
TABLE
2
STYLE
5
3
100
AcDbSymbolTable
70
1
0
STYLE
5
11
100
AcDbSymbolTableRecord
100
AcDbTextStyleTableRecord
2
STANDARD
70
0
0
ENDTAB
0
TABLE
2
VIEW
5
6
100
AcDbSymbolTable
70
0
0
ENDTAB
0
TABLE
2
UCS
5
7
100
AcDbSymbolTable
70
0
0
ENDTAB
0
TABLE
2
APPID
5
9
100
AcDbSymbolTable
70
2
0
APPID
5
12
100
AcDbSymbolTableRecord
100
AcDbRegAppTableRecord
2
ACAD
70
0
0
ENDTAB
0
TABLE
2
DIMSTYLE
5
A
100
AcDbSymbolTable
70
1
0
ENDTAB
0
TABLE
2
BLOCK_RECORD
5
1
100
AcDbSymbolTable
70
1
0
BLOCK_RECORD
5
1F
100
AcDbSymbolTableRecord
100
AcDbBlockTableRecord
2
*MODEL_SPACE
0
BLOCK_RECORD
5
1B
100
AcDbSymbolTableRecord
100
AcDbBlockTableRecord
2
*PAPER_SPACE
0
ENDTAB
0
ENDSEC
0
SECTION
2
BLOCKS
0
BLOCK
5
20
100
AcDbEntity
100
AcDbBlockBegin
2
*MODEL_SPACE
0
ENDBLK
5
21
100
AcDbEntity
100
AcDbBlockEnd
0
BLOCK
5
1C
100
AcDbEntity
100
AcDbBlockBegin
2
*PAPER_SPACE
0
ENDBLK
5
1D
100
AcDbEntity
100
AcDbBlockEnd
0
ENDSEC
0
SECTION
2
ENTITIES
0
LWPOLYLINE
5
100
100
AcDbEntity
8
0
100
AcDbPolyline
90
28
70
1
43
0.0
10
0
20
13.000000193715096
10
3.0000000000000004
20
13.000000193715096
10
3.0000000000000004
20
3.0000000000000004
10
21.499999999999993
20
3.0000000000000004
10
21.499999999999993
20
0
10
33.5
20
0
10
33.5
20
3.0000000000000004
10
57.5
20
3.0000000000000004
10
57.5
20
0
10
69.5
20
0
10
69.5
20
3.0000000000000004
10
87.999999999999986
20
2.9999999999999982
10
87.999999999999986
20
13.000000193715096
10
91
20
13.000000193715096
10
91
20
23.000000193715096
10
87.999999999999986
20
23.000000193715096
10
87.999999999999986
20
33.000000193715096
10
91
20
33.000000193715096
10
91
20
43.000000193715096
10
87.999999999999986
20
43.000000193715096
10
87.999999999999986
20
53
10
3.0000000000000071
20
53
10
3.0000000000000004
20
43.000000640749931
10
0
20
43.000000640749931
10
0
20
33.000000491738319
10
3.0000000000000004
20
33.000000491738319
10
3.0000000000000004
20
23.000000342726707
10
0
20
23.000000342726707
0
LINE
5
101
100
AcDbEntity
8
0
100
AcDbLine
10
3.0000000000000071
20
53
30
0
11
3.0000000000000004
21
43.000000640749931
31
0
0
LINE
5
102
100
AcDbEntity
8
0
100
AcDbLine
10
0
20
43.000000640749931
30
0
11
0
21
33.000000491738319
31
0
0
LINE
5
103
100
AcDbEntity
8
0
100
AcDbLine
10
3.0000000000000004
20
33.000000491738319
30
0
11
3.0000000000000004
21
23.000000342726707
31
0
0
LINE
5
104
100
AcDbEntity
8
0
100
AcDbLine
10
0
20
23.000000342726707
30
0
11
0
21
13.000000193715096
31
0
0
LINE
5
105
100
AcDbEntity
8
0
100
AcDbLine
10
3.0000000000000004
20
13.000000193715096
30
0
11
3.0000000000000004
21
3.0000000000000004
31
0
0
LINE
5
106
100
AcDbEntity
8
0
100
AcDbLine
10
21.499999999999993
20
3.0000000000000004
30
0
11
21.499999999999993
21
0
31
0
0
LINE
5
107
100
AcDbEntity
8
0
100
AcDbLine
10
33.5
20
0
30
0
11
33.5
21
3.0000000000000004
31
0
0
LINE
5
108
100
AcDbEntity
8
0
100
AcDbLine
10
57.5
20
3.0000000000000004
30
0
11
57.5
21
0
31
0
0
LINE
5
109
100
AcDbEntity
8
0
100
AcDbLine
10
69.5
20
0
30
0
11
69.5
21
3.0000000000000004
31
0
0
LINE
5
110
100
AcDbEntity
8
0
100
AcDbLine
10
69.5
20
3.0000000000000004
30
0
11
87.999999999999986
21
2.9999999999999982
31
0
0
LINE
5
111
100
AcDbEntity
8
0
100
AcDbLine
10
87.999999999999986
20
13.000000193715096
30
0
11
91
21
13.000000193715096
31
0
0
LINE
5
112
100
AcDbEntity
8
0
100
AcDbLine
10
91
20
23.000000193715096
30
0
11
87.999999999999986
21
23.000000193715096
31
0
0
LINE
5
113
100
AcDbEntity
8
0
100
AcDbLine
10
87.999999999999986
20
33.000000193715096
30
0
11
91
21
33.000000193715096
31
0
0
LINE
5
114
100
AcDbEntity
8
0
100
AcDbLine
10
91
20
43.000000193715096
30
0
11
87.999999999999986
21
43.000000193715096
31
0
0
LINE
5
115
100
AcDbEntity
8
0
100
AcDbLine
10
87.999999999999986
20
53
30
0
11
3.0000000000000071
21
53
31
0
0
ENDSEC
0
SECTION
2
OBJECTS
0
DICTIONARY
5
C
100
AcDbDictionary
3
ACAD_GROUP
350
D
3
ACAD_MLINESTYLE
350
17
0
DICTIONARY
5
D
100
AcDbDictionary
0
DICTIONARY
5
1A
330
C
100
AcDbDictionary
0
DICTIONARY
5
17
100
AcDbDictionary
0
ENDSEC
0
EOF
